{"title":"Afterlife S01","uid":11340798,"size":2117799929,"categoryP":"video","categoryS":"tv_shows","magnet":"?xt=urn:btih:27fea6ea0eb303042fe6b912f8287e510dc2e974&amp;dn=Afterlife+S01&amp;tr=udp%3A%2F%2Ftracker.openbittorrent.com%3A80&amp;tr=udp%3A%2F%2Fopen.demonii.com%3A1337&amp;tr=udp%3A%2F%2Ftracker.coppersurfer.tk%3A6969&amp;tr=udp%3A%2F%2Fexodus.desync.com%3A6969","seeders":8,"leechers":2,"uploader":"RedBaron58","files":6,"time":1414799555,"description":"AfterLife (ITV) S01 - Chiller Drama x264 mp4\n  &lt;a href=&quot;\nhttp://www.imdb.com/title/tt0435937/&quot; rel=&quot;nofollow&quot; target=&quot;_NEW&quot;&gt;\nhttp://www.imdb.com/title/tt0435937/&lt;/a&gt;\n\nTrailer:(Fan Video)\n\n\n\nThank you for your kind comments and thumbs ups on my other torrents, your feedback is welcome.\n\n\nAbout the Series:\n(You don't choose the spirits. They choose you.)\nThe main characters of the series are the psychic, Alison Mundy (played by Lesley Sharp) and the academic \nwho becomes involved with her due to his skeptical interest in the paranormal, \nDr Robert Bridge (Andrew Lincoln). \nSet in Bristol, each of the six 45 minute episodes of the first series sees Alison become involved in the \nappearance of a spirit and attempting to discover why it has come back to haunt the living. \nRobert becomes involved in the first episode, when Alison first moves to Bristol and her activities \ninadvertently result in the suicide of one of his students.\n\n\nI hope you enjoy.\n\n\nTechnical: (All episodes are encoded to the same settings)\n\nGeneral\nComplete name                            : H:Afterlife S01Afterlife S01E01 More Than Meets the Eye x264 RB58.mp4\nFormat                                   : MPEG-4\nFormat profile                           : Base Media / Version 2\nCodec ID                                 : mp42\nFile size                                : 337 MiB\nDuration                                 : 47mn 4s\nOverall bit rate mode                    : Variable\nOverall bit rate                         : 1 000 Kbps\nEncoded date                             : UTC 2014-10-31 13:50:29\nTagged date                              : UTC 2014-10-31 14:03:32\nWriting application                      : HandBrake 0.9.8 2012071700\n\nVideo\nID                                       : 1\nFormat                                   : AVC\nFormat/Info                              : Advanced Video Codec\nFormat profile                           : &lt;a class=&quot;__cf_email__&quot; href=&quot;/cdn-cgi/l/email-protection&quot; data-cfemail=&quot;7f321e16113f334c514f&quot;&gt;[email&amp;#160;protected]&lt;/a&gt;&lt;script cf-hash='f9e31' type=&quot;text/javascript&quot;&gt;\n/* &lt;![CDATA[ */!function(){try{var t=&quot;currentScript&quot;in document?document.currentScript:function(){for(var t=document.getElementsByTagName(&quot;script&quot;),e=t.length;e--;)if(t[e].getAttribute(&quot;cf-hash&quot;))return t[e]}();if(t&amp;&amp;t.previousSibling){var e,r,n,i,c=t.previousSibling,a=c.getAttribute(&quot;data-cfemail&quot;);if(a){for(e=&quot;&quot;,r=parseInt(a.substr(0,2),16),n=2;a.length-n;n+=2)i=parseInt(a.substr(n,2),16)^r,e+=String.fromCharCode(i);e=document.createTextNode(e),c.parentNode.replaceChild(e,c)}}}catch(u){}}();/* ]]&gt; */&lt;/script&gt;\nFormat settings, CABAC                   : Yes\nFormat settings, ReFrames                : 4 frames\nCodec ID                                 : avc1\nCodec ID/Info                            : Advanced Video Coding\nDuration                                 : 47mn 4s\nBit rate mode                            : Variable\nBit rate                                 : 900 Kbps\nWidth                                    : 716 pixels\nHeight                                   : 576 pixels\nDisplay aspect ratio                     : 16:9\nFrame rate mode                          : Constant\nFrame rate                               : 25.000 fps\nColor space                              : YUV\nChroma subsampling                       : 4:2:0\nBit depth                                : 8 bits\nScan type                                : Progressive\nBits/(Pixel*Frame)                       : 0.087\nStream size                              : 303 MiB (90%)\nWriting library                          : x264 core 120\nEncoding settings                        : cabac=1 / ref=1 / deblock=1:0:0\nEncoded date                             : UTC 2014-10-31 13:50:29\nTagged date                              : UTC 2014-10-31 14:03:32\nColor primaries                          : BT.601 NTSC\nTransfer characteristics                 : BT.709\nMatrix coefficients                      : BT.601\n\nAudio\nID                                       : 2\nFormat                                   : AAC\nFormat/Info                              : Advanced Audio Codec\nFormat profile                           : LC\nCodec ID                                 : 40\nDuration                                 : 47mn 4s\nBit rate mode                            : Variable\nBit rate                                 : 96.0 Kbps\nMaximum bit rate                         : 163 Kbps\nChannel(s)                               : 2 channels\nChannel positions                        : Front: L R\nSampling rate                            : 48.0 KHz\nCompression mode                         : Lossy\nDelay relative to video                  : 80ms\nStream size                              : 32.3 MiB (10%)\nLanguage                                 : English\nEncoded date                             : UTC 2014-10-31 13:50:29\nTagged date                              : UTC 2014-10-31 14:03:31","torrent":{"xt":"urn:btih:27fea6ea0eb303042fe6b912f8287e510dc2e974","amp;dn":"Afterlife+S01","amp;tr":["udp%3A%2F%2Ftracker.openbittorrent.com%3A80","udp%3A%2F%2Fopen.demonii.com%3A1337","udp%3A%2F%2Ftracker.coppersurfer.tk%3A6969","udp%3A%2F%2Fexodus.desync.com%3A6969"],"infoHash":"27fea6ea0eb303042fe6b912f8287e510dc2e974","infoHashBuffer":{"type":"Buffer","data":[39,254,166,234,14,179,3,4,47,230,185,18,248,40,126,81,13,194,233,116]},"announce":[],"urlList":[]}}